RBDS028runT45_grf
version=1
nRows=24
nColumns=19
inDegrees=no
endheader
time	ground_force_r_vx	ground_force_r_vy	ground_force_r_vz	ground_force_r_px	ground_force_r_py	ground_force_r_pz	ground_force_r_mx	ground_force_r_my	ground_force_r_mz	ground_force_l_vx	ground_force_l_vy	ground_force_l_vz	ground_force_l_px	ground_force_l_py	ground_force_l_pz	ground_force_l_mx	ground_force_l_my	ground_force_l_mz
     14.99900000	      0.00000000	      0.00000000	      0.00000000	      0.00000000	      0.00000000	      0.00000000	      0.00000000	      0.00000000	      0.00000000	    165.38963223	   1101.05005550	    -24.40442578	      1.75616404	      0.00000000	      0.98188406	      0.00000000	      0.15761643	      0.00000000
     15.00000000	      0.00000000	      0.00000000	      0.00000000	      0.00000000	      0.00000000	      0.00000000	      0.00000000	      0.00000000	      0.00000000	    169.80304854	   1081.75906998	    -25.19639156	      1.75216897	      0.00000000	      0.98203470	      0.00000000	      0.12510308	      0.00000000
     15.00100000	      0.00000000	      0.00000000	      0.00000000	      0.00000000	      0.00000000	      0.00000000	      0.00000000	      0.00000000	      0.00000000	    173.40824922	   1061.77876191	    -25.89842893	      1.74818233	      0.00000000	      0.98218068	      0.00000000	      0.08364338	      0.00000000
     15.00200000	      0.00000000	      0.00000000	      0.00000000	      0.00000000	      0.00000000	      0.00000000	      0.00000000	      0.00000000	      0.00000000	    177.01344989	   1041.79845383	    -26.60046630	      1.74419570	      0.00000000	      0.98232667	      0.00000000	      0.04218368	      0.00000000
     15.00300000	      0.00000000	      0.00000000	      0.00000000	      0.00000000	      0.00000000	      0.00000000	      0.00000000	      0.00000000	      0.00000000	    180.61865057	   1021.81814576	    -27.30250367	      1.74020906	      0.00000000	      0.98247265	      0.00000000	      0.00072398	      0.00000000
     15.00400000	      0.00000000	      0.00000000	      0.00000000	      0.00000000	      0.00000000	      0.00000000	      0.00000000	      0.00000000	      0.00000000	    183.65651195	   1001.49781719	    -27.92109644	      1.73623244	      0.00000000	      0.98261147	      0.00000000	     -0.04722991	      0.00000000
     15.00500000	      0.00000000	      0.00000000	      0.00000000	      0.00000000	      0.00000000	      0.00000000	      0.00000000	      0.00000000	      0.00000000	    186.41070369	    981.00747838	    -28.49796690	      1.73226083	      0.00000000	      0.98274671	      0.00000000	     -0.09843088	      0.00000000
     15.00600000	      0.00000000	      0.00000000	      0.00000000	      0.00000000	      0.00000000	      0.00000000	      0.00000000	      0.00000000	      0.00000000	    189.16489542	    960.51713957	    -29.07483737	      1.72828922	      0.00000000	      0.98288194	      0.00000000	     -0.14963186	      0.00000000
     15.00700000	      0.00000000	      0.00000000	      0.00000000	      0.00000000	      0.00000000	      0.00000000	      0.00000000	      0.00000000	      0.00000000	    191.62759443	    939.91768447	    -29.60018409	      1.72432505	      0.00000000	      0.98301175	      0.00000000	     -0.20440638	      0.00000000
     15.00800000	      0.00000000	      0.00000000	      0.00000000	      0.00000000	      0.00000000	      0.00000000	      0.00000000	      0.00000000	      0.00000000	    193.50730797	    919.09999680	    -30.02248334	      1.72037579	      0.00000000	      0.98313069	      0.00000000	     -0.26632801	      0.00000000
     15.00900000	      0.00000000	      0.00000000	      0.00000000	      0.00000000	      0.00000000	      0.00000000	      0.00000000	      0.00000000	      0.00000000	    195.38702152	    898.28230913	    -30.44478258	      1.71642654	      0.00000000	      0.98324964	      0.00000000	     -0.32824964	      0.00000000
     15.01000000	      0.00000000	      0.00000000	      0.00000000	      0.00000000	      0.00000000	      0.00000000	      0.00000000	      0.00000000	      0.00000000	    197.26673506	    877.46462146	    -30.86708183	      1.71247728	      0.00000000	      0.98336858	      0.00000000	     -0.39017127	      0.00000000
     15.01100000	      0.00000000	      0.00000000	      0.00000000	      0.00000000	      0.00000000	      0.00000000	      0.00000000	      0.00000000	      0.00000000	    198.26847460	    856.50359694	    -31.11237663	      1.70855867	      0.00000000	      0.98346647	      0.00000000	     -0.46391073	      0.00000000
     15.01200000	      0.00000000	      0.00000000	      0.00000000	      0.00000000	      0.00000000	      0.00000000	      0.00000000	      0.00000000	      0.00000000	    199.27021413	    835.54257243	    -31.35767143	      1.70464007	      0.00000000	      0.98356436	      0.00000000	     -0.53765020	      0.00000000
     15.01300000	      0.00000000	      0.00000000	      0.00000000	      0.00000000	      0.00000000	      0.00000000	      0.00000000	      0.00000000	      0.00000000	    200.27195367	    814.58154791	    -31.60296624	      1.70072146	      0.00000000	      0.98366225	      0.00000000	     -0.61138966	      0.00000000
     15.01400000	      0.00000000	      0.00000000	      0.00000000	      0.00000000	      0.00000000	      0.00000000	      0.00000000	      0.00000000	      0.00000000	    200.69942254	    793.64699333	    -31.72043937	      1.69682964	      0.00000000	      0.98374358	      0.00000000	     -0.69375565	      0.00000000
     15.01500000	      0.00000000	      0.00000000	      0.00000000	      0.00000000	      0.00000000	      0.00000000	      0.00000000	      0.00000000	      0.00000000	    200.83975609	    772.72567372	    -31.77400168	      1.69295121	      0.00000000	      0.98381663	      0.00000000	     -0.78043490	      0.00000000
     15.01600000	      0.00000000	      0.00000000	      0.00000000	      0.00000000	      0.00000000	      0.00000000	      0.00000000	      0.00000000	      0.00000000	    200.98008964	    751.80435411	    -31.82756399	      1.68907278	      0.00000000	      0.98388968	      0.00000000	     -0.86711415	      0.00000000
     15.01700000	      0.00000000	      0.00000000	      0.00000000	      0.00000000	      0.00000000	      0.00000000	      0.00000000	      0.00000000	      0.00000000	    200.84533357	    730.95613250	    -31.81498397	      1.68521137	      0.00000000	      0.98395356	      0.00000000	     -0.95845076	      0.00000000
     15.01800000	      0.00000000	      0.00000000	      0.00000000	      0.00000000	      0.00000000	      0.00000000	      0.00000000	      0.00000000	      0.00000000	    200.16039827	    710.25410686	    -31.67011926	      1.68138403	      0.00000000	      0.98399908	      0.00000000	     -1.05910212	      0.00000000
     15.01900000	      0.00000000	      0.00000000	      0.00000000	      0.00000000	      0.00000000	      0.00000000	      0.00000000	      0.00000000	      0.00000000	    199.47546297	    689.55208123	    -31.52525456	      1.67755669	      0.00000000	      0.98404461	      0.00000000	     -1.15975348	      0.00000000
     15.02000000	      0.00000000	      0.00000000	      0.00000000	      0.00000000	      0.00000000	      0.00000000	      0.00000000	      0.00000000	      0.00000000	    198.79052767	    668.85005560	    -31.38038986	      1.67372935	      0.00000000	      0.98409013	      0.00000000	     -1.26040484	      0.00000000
     15.02100000	      0.00000000	      0.00000000	      0.00000000	      0.00000000	      0.00000000	      0.00000000	      0.00000000	      0.00000000	      0.00000000	    197.33494198	    648.54086576	    -31.03837757	      1.66996554	      0.00000000	      0.98410662	      0.00000000	     -1.37584274	      0.00000000
     15.02200000	      0.00000000	      0.00000000	      0.00000000	      0.00000000	      0.00000000	      0.00000000	      0.00000000	      0.00000000	      0.00000000	    195.87935629	    628.23167593	    -30.69636529	      1.66620174	      0.00000000	      0.98412312	      0.00000000	     -1.49128064	      0.00000000
